HIERARCHY
ROOT hip
{
  OFFSET 0.0 0.0 0.0
  CHANNELS 6 Xposition Yposition Zposition Zrotation Yrotation Xrotation
  JOINT abdomen
  {
    OFFSET 0.0 20.6881 -0.73152
    CHANNELS 3 Zrotation Xrotation Yrotation
    JOINT chest
    {
      OFFSET 0.0 11.7043 -0.48768
      CHANNELS 3 Zrotation Xrotation Yrotation
      JOINT neck
      {
        OFFSET 0.0 22.1894 -2.19456
        CHANNELS 3 Zrotation Xrotation Yrotation
        JOINT head
        {
          OFFSET -0.24384 7.07133 1.2192
          CHANNELS 3 Zrotation Xrotation Yrotation
          JOINT leftEye
          {
            OFFSET 4.14528 8.04674 8.04672
            CHANNELS 3 Zrotation Xrotation Yrotation
            End Site
            {
              OFFSET 1.0 0.0 0.0
            }
          }
          JOINT rightEye
          {
            OFFSET -3.6576 8.04674 8.04672
            CHANNELS 3 Zrotation Xrotation Yrotation
            End Site
            {
              OFFSET 1.0 0.0 0.0
            }
          }
        }
      }
      JOINT rCollar
      {
        OFFSET -2.68224 19.2634 -4.8768
        CHANNELS 3 Zrotation Xrotation Yrotation
        JOINT rShldr
        {
          OFFSET -8.77824 -1.95073 1.46304
          CHANNELS 3 Zrotation Xrotation Yrotation
          JOINT rForeArm
          {
            OFFSET -28.1742 -1.7115 0.48768
            CHANNELS 3 Zrotation Xrotation Yrotation
            JOINT rHand
            {
              OFFSET -22.5879 0.773209 7.07136
              CHANNELS 3 Zrotation Xrotation Yrotation
              JOINT rThumb1
              {
                OFFSET -1.2192 -0.487915 3.41376
                CHANNELS 3 Zrotation Xrotation Yrotation
                JOINT rThumb2
                {
                  OFFSET -3.37035 -0.52449 3.41376
                  CHANNELS 3 Zrotation Xrotation Yrotation
                  End Site
                  {
                    OFFSET -1.78271 -1.18214 1.43049
                  }
                }
              }
              JOINT rIndex1
              {
                OFFSET -7.75947 0.938293 5.60832
                CHANNELS 3 Zrotation Xrotation Yrotation
                JOINT rIndex2
                {
                  OFFSET -2.54057 -0.884171 1.56538
                  CHANNELS 3 Zrotation Xrotation Yrotation
                  End Site
                  {
                    OFFSET -1.62519 -0.234802 1.16502
                  }
                }
              }
              JOINT rMid1
              {
                OFFSET -8.24714 1.18213 3.41376
                CHANNELS 3 Zrotation Xrotation Yrotation
                JOINT rMid2
                {
                  OFFSET -3.10165 -0.590103 1.0647
                  CHANNELS 3 Zrotation Xrotation Yrotation
                  End Site
                  {
                    OFFSET -2.48547 -0.328903 0.83742
                  }
                }
              }
              JOINT rRing1
              {
                OFFSET -8.82822 0.546677 1.51678
                CHANNELS 3 Zrotation Xrotation Yrotation
                JOINT rRing2
                {
                  OFFSET -2.60934 -0.819778 -0.0198488
                  CHANNELS 3 Zrotation Xrotation Yrotation
                  End Site
                  {
                    OFFSET -2.33842 -0.294052 0.168128
                  }
                }
              }
              JOINT rPinky1
              {
                OFFSET -8.27202 -0.0477905 -0.4584
                CHANNELS 3 Zrotation Xrotation Yrotation
                JOINT rPinky2
                {
                  OFFSET -1.82734 -0.647385 -0.700984
                  CHANNELS 3 Zrotation Xrotation Yrotation
                  End Site
                  {
                    OFFSET -1.69225 -0.51767 -0.607171
                  }
                }
              }
            }
          }
        }
      }
      JOINT lCollar
      {
        OFFSET 2.68224 19.2634 -4.8768
        CHANNELS 3 Zrotation Xrotation Yrotation
        JOINT lShldr
        {
          OFFSET 8.77824 -1.95073 1.46304
          CHANNELS 3 Zrotation Xrotation Yrotation
          JOINT lForeArm
          {
            OFFSET 28.1742 -1.7115 0.48768
            CHANNELS 3 Zrotation Xrotation Yrotation
            JOINT lHand
            {
              OFFSET 22.5879 0.773209 7.07136
              CHANNELS 3 Zrotation Xrotation Yrotation
              JOINT lThumb1
              {
                OFFSET 1.2192 -0.487915 3.41376
                CHANNELS 3 Zrotation Xrotation Yrotation
                JOINT lThumb2
                {
                  OFFSET 3.37035 -0.52449 3.41376
                  CHANNELS 3 Zrotation Xrotation Yrotation
                  End Site
                  {
                    OFFSET 1.78271 -1.18214 1.43049
                  }
                }
              }
              JOINT lIndex1
              {
                OFFSET 7.75947 0.938293 5.60832
                CHANNELS 3 Zrotation Xrotation Yrotation
                JOINT lIndex2
                {
                  OFFSET 2.54057 -0.884171 1.56538
                  CHANNELS 3 Zrotation Xrotation Yrotation
                  End Site
                  {
                    OFFSET 1.62519 -0.234802 1.16502
                  }
                }
              }
              JOINT lMid1
              {
                OFFSET 8.24714 1.18213 3.41376
                CHANNELS 3 Zrotation Xrotation Yrotation
                JOINT lMid2
                {
                  OFFSET 3.10165 -0.590103 1.0647
                  CHANNELS 3 Zrotation Xrotation Yrotation
                  End Site
                  {
                    OFFSET 2.48547 -0.328903 0.83742
                  }
                }
              }
              JOINT lRing1
              {
                OFFSET 8.82822 0.546677 1.51678
                CHANNELS 3 Zrotation Xrotation Yrotation
                JOINT lRing2
                {
                  OFFSET 2.60934 -0.819778 -0.0198488
                  CHANNELS 3 Zrotation Xrotation Yrotation
                  End Site
                  {
                    OFFSET 2.33842 -0.294052 0.168128
                  }
                }
              }
              JOINT lPinky1
              {
                OFFSET 8.27202 -0.0477905 -0.4584
                CHANNELS 3 Zrotation Xrotation Yrotation
                JOINT lPinky2
                {
                  OFFSET 1.82734 -0.647385 -0.700984
                  CHANNELS 3 Zrotation Xrotation Yrotation
                  End Site
                  {
                    OFFSET 1.69225 -0.51767 -0.607171
                  }
                }
              }
            }
          }
        }
      }
    }
  }
  JOINT rButtock
  {
    OFFSET -8.77824 4.35084 1.2192
    CHANNELS 3 Zrotation Xrotation Yrotation
    JOINT rThigh
    {
      OFFSET 0.0 -1.70687 -2.19456
      CHANNELS 3 Zrotation Xrotation Yrotation
      JOINT rShin
      {
        OFFSET 0.0 -36.8199 0.73152
        CHANNELS 3 Zrotation Xrotation Yrotation
        JOINT rFoot
        {
          OFFSET 0.73152 -45.1104 -5.12064
          CHANNELS 3 Zrotation Xrotation Yrotation
          End Site
          {
            OFFSET -1.1221 -3.69964 12.103
          }
        }
      }
    }
  }
  JOINT lButtock
  {
    OFFSET 8.77824 4.35084 1.2192
    CHANNELS 3 Zrotation Xrotation Yrotation
    JOINT lThigh
    {
      OFFSET 0.0 -1.70687 -2.19456
      CHANNELS 3 Zrotation Xrotation Yrotation
      JOINT lShin
      {
        OFFSET 0.0 -36.8199 0.73152
        CHANNELS 3 Zrotation Xrotation Yrotation
        JOINT lFoot
        {
          OFFSET -0.73152 -45.1104 -5.12064
          CHANNELS 3 Zrotation Xrotation Yrotation
          End Site
          {
            OFFSET 1.1221 -3.69964 12.103
          }
        }
      }
    }
  }
}
MOTION
Frames: 6
Frame Time: 0.00833333
0.0 78.872 0.0 2.0873 -53.9558 2.0415 -8.9425 8.27074 -2.56229 -1.33205 -2.4247 -1.39669 2.19704 14.9999 -2.38511 2.66713 -27.7998 -4.15053 -0.0 0.0 0.0 -0.0 0.0 0.0 -1.03318e-13 4.34146e-13 6.9674e-13 83.8561 6.96252 3.80662 -7.22365 -2.61752 12.6883 -0.710554 23.2225 3.4571 -4.07628e-09 2.14697e-09 -1.10631e-09 -7.04773e-09 3.70718e-09 -1.83232e-09 -4.07628e-09 2.14698e-09 -1.10631e-09 7.73091 5.47488 0.417314 -4.07628e-09 2.14698e-09 -1.10631e-09 2.90554 0.965183 0.102902 -4.07628e-09 2.14697e-09 -1.10631e-09 10.2786 0.731801 0.0259123 -4.07629e-09 2.14697e-09 -1.1063e-09 2.22167 -0.733487 -0.20892 -1.03375e-13 4.34146e-13 6.96492e-13 -81.1282 -6.04769 1.97758 4.06653 -1.25001 -7.0566 0.00106847 0.933327 -0.131182 -1.75835e-10 3.69249e-09 2.89954e-09 -2.99607e-10 6.38636e-09 5.0138e-09 -1.75843e-10 3.69249e-09 2.89956e-09 -7.73091 5.47488 -0.417314 -1.75832e-10 3.69249e-09 2.89955e-09 -2.90554 0.965183 -0.102902 -1.75847e-10 3.69249e-09 2.89955e-09 -10.2786 0.731801 -0.0259123 -1.7583e-10 3.69249e-09 2.89953e-09 -2.22167 -0.733487 0.20892 -2.03217e-16 0.0 -3.88251e-19 5.0235 -24.7655 9.68407 -2.87763 73.7335 3.00713 0.712689 12.9186 -11.5132 2.03217e-16 0.0 3.88251e-19 -5.74071 -17.4145 3.30437 0.180457 37.7205 -0.155432 2.04738 -25.6795 3.58433
-1.0190000000000055 78.8416 1.0445099999999998 4.2604 -54.5488 0.0841 -10.6401 8.38464 -2.56914 -1.05492 -2.48652 -1.43388 2.24812 15.0992 -2.20628 2.67785 -28.076 -3.78492 -0.0 0.0 0.0 -0.0 0.0 0.0 -7.57397e-14 2.42609e-13 4.82711e-13 83.9367 7.0422 3.65169 -7.23562 -2.62334 12.7101 -0.710278 23.2141 3.45581 -2.92289e-09 1.4064e-09 -9.90801e-10 -5.05936e-09 2.42645e-09 -1.6552e-09 -2.9229e-09 1.40641e-09 -9.90804e-10 7.73091 5.47488 0.417314 -2.92289e-09 1.40641e-09 -9.90804e-10 2.90554 0.965183 0.102902 -2.92289e-09 1.4064e-09 -9.90799e-10 10.2786 0.731801 0.0259123 -2.9229e-09 1.4064e-09 -9.90789e-10 2.22167 -0.733487 -0.20892 -7.57783e-14 2.42599e-13 4.82448e-13 -81.003 -6.67029 1.82666 3.99317 -1.22236 -6.92778 0.00316019 1.6502 -0.231957 -3.91168e-10 1.92019e-09 1.81496e-09 -6.76385e-10 3.32101e-09 3.13861e-09 -3.91176e-10 1.92019e-09 1.81496e-09 -7.73091 5.47488 -0.417314 -3.91165e-10 1.92019e-09 1.81496e-09 -2.90554 0.965183 -0.102902 -3.91179e-10 1.92019e-09 1.81495e-09 -10.2786 0.731801 -0.0259123 -3.91161e-10 1.92019e-09 1.81494e-09 -2.22167 -0.733487 0.20892 -2.03217e-16 0.0 -3.88251e-19 4.4897 -27.9934 10.3342 -3.79149 76.9899 3.97529 0.541191 12.1636 -12.2574 2.03217e-16 0.0 3.88251e-19 -6.7515 -15.3962 4.39222 0.0991768 36.2418 -0.226672 2.01829 -25.5727 3.42081
-2.084000000000003 78.8268 2.0943899999999998 6.1292 -55.1815 -1.5795 -12.2484 8.40374 -2.56221 -0.777716 -2.56312 -1.45638 2.28329 15.2119 -2.03209 2.66469 -28.3489 -3.4328 -0.0 0.0 0.0 -0.0 0.0 0.0 -2.39507e-14 -1.68657e-13 -1.59462e-14 84.0176 7.0608 3.4634 -7.2303 -2.62069 12.7005 -0.720808 23.3724 3.48228 -3.54755e-10 -2.1216e-11 -6.51827e-10 -6.29119e-10 -4.11617e-11 -1.11983e-09 -3.54757e-10 -2.1214e-11 -6.51831e-10 7.73091 5.47488 0.417314 -3.54755e-10 -2.1213e-11 -6.5183e-10 2.90554 0.965183 0.102902 -3.54752e-10 -2.12154e-11 -6.51825e-10 10.2786 0.731801 0.0259123 -3.54758e-10 -2.1215e-11 -6.51817e-10 2.22167 -0.733487 -0.20892 -2.39547e-14 -1.6868e-13 -1.62289e-14 -80.891 -7.31022 1.68055 3.93311 -1.19995 -6.8223 0.0065162 2.37715 -0.334247 -5.16804e-10 -1.23868e-09 -1.47042e-10 -9.00549e-10 -2.14238e-09 -2.53516e-10 -5.16811e-10 -1.23868e-09 -1.4704e-10 -7.73091 5.47488 -0.417314 -5.16801e-10 -1.23868e-09 -1.47044e-10 -2.90554 0.965183 -0.102902 -5.16813e-10 -1.23868e-09 -1.47048e-10 -10.2786 0.731801 -0.0259123 -5.16795e-10 -1.23868e-09 -1.47063e-10 -2.22167 -0.733487 0.20892 -2.03217e-16 0.0 -3.88251e-19 4.08578 -31.2144 11.0317 -5.01548 79.747 5.27042 0.155503 10.5482 -13.4715 2.03217e-16 0.0 3.88251e-19 -7.72719 -13.2788 5.60334 -0.00485978 34.5623 -0.32145 1.9553 -25.4944 3.1486
-3.2040000000000077 78.8307 3.1470700000000003 7.5404 -55.8518 -2.8417 -13.5592 8.36638 -2.58988 -0.547579 -2.65776 -1.476 2.30442 15.3007 -1.86115 2.62934 -28.5509 -3.09414 -0.0 0.0 0.0 -0.0 0.0 0.0 2.59007e-14 -6.07705e-13 -5.44722e-13 84.0802 6.98374 3.25091 -7.21263 -2.61202 12.6684 -0.738218 23.6345 3.52611 2.39835e-09 -1.45798e-09 -2.54475e-10 4.12144e-09 -2.52396e-09 -4.87358e-10 2.39834e-09 -1.45798e-09 -2.5448e-10 7.73091 5.47488 0.417314 2.39835e-09 -1.45798e-09 -2.54478e-10 2.90554 0.965183 0.102902 2.39835e-09 -1.45798e-09 -2.54474e-10 10.2786 0.731801 0.0259123 2.39834e-09 -1.45798e-09 -2.54467e-10 2.22167 -0.733487 -0.20892 2.59285e-14 -6.07738e-13 -5.45021e-13 -80.8093 -7.94526 1.52302 3.87454 -1.17835 -6.71938 0.0112613 3.08038 -0.433323 -5.23472e-10 -4.37311e-09 -2.0863e-09 -9.18563e-10 -7.5635e-09 -3.60656e-09 -5.23479e-10 -4.37311e-09 -2.0863e-09 -7.73091 5.47488 -0.417314 -5.23469e-10 -4.37311e-09 -2.0863e-09 -2.90554 0.965183 -0.102902 -5.23479e-10 -4.37311e-09 -2.08631e-09 -10.2786 0.731801 -0.0259123 -5.2346e-10 -4.37311e-09 -2.08632e-09 -2.22167 -0.733487 0.20892 -2.03217e-16 0.0 -3.88251e-19 3.89787 -34.2253 11.7329 -6.46144 81.7834 6.79855 -0.424044 8.44108 -14.8147 2.03217e-16 0.0 3.88251e-19 -8.60106 -11.0973 6.77047 -0.100529 32.7413 -0.433872 1.87513 -25.3709 2.84602
-4.376000000000005 78.8472 4.193409999999999 8.4081 -56.5198 -3.6418 -14.3642 8.31086 -2.70054 -0.411703 -2.77374 -1.50457 2.31385 15.3281 -1.69221 2.57173 -28.6146 -2.76974 -0.0 0.0 0.0 -0.0 0.0 0.0 4.76662e-14 -8.82585e-13 -8.49109e-13 84.1052 6.77642 3.02349 -7.18757 -2.59975 12.623 -0.758476 23.9371 3.57689 4.10662e-09 -2.22599e-09 3.61693e-11 7.07076e-09 -3.85026e-09 -1.89426e-11 4.10662e-09 -2.22599e-09 3.61629e-11 7.73091 5.47488 0.417314 4.10662e-09 -2.22599e-09 3.61661e-11 2.90554 0.965183 0.102902 4.10662e-09 -2.22599e-09 3.61693e-11 10.2786 0.731801 0.0259123 4.10662e-09 -2.22599e-09 3.61756e-11 2.22167 -0.733487 -0.20892 4.77041e-14 -8.82621e-13 -8.49407e-13 -80.7751 -8.55317 1.33773 3.80563 -1.15314 -6.59827 0.0170586 3.72613 -0.52442 -3.81901e-10 -6.07207e-09 -3.10266e-09 -6.76896e-10 -1.0502e-08 -5.36451e-09 -3.81906e-10 -6.07207e-09 -3.10266e-09 -7.73091 5.47488 -0.417314 -3.81898e-10 -6.07207e-09 -3.10267e-09 -2.90554 0.965183 -0.102902 -3.81906e-10 -6.07207e-09 -3.10267e-09 -10.2786 0.731801 -0.0259123 -3.81889e-10 -6.07207e-09 -3.10269e-09 -2.22167 -0.733487 0.20892 -2.03217e-16 0.0 -3.88251e-19 3.98743 -36.8261 12.3718 -7.6034 82.8812 8.02786 -1.11184 6.2028 -15.9548 2.03217e-16 0.0 3.88251e-19 -9.27817 -8.88712 7.73265 -0.155682 30.8379 -0.558773 1.79539 -25.1289 2.59185
-5.590000000000003 78.894 5.229830000000001 8.7364 -57.1193 -3.9853 -14.4852 8.2448 -2.91417 -0.423436 -2.92272 -1.54326 2.31224 15.2615 -1.51963 2.47296 -28.4759 -2.45619 -0.0 0.0 0.0 -0.0 0.0 0.0 2.45819e-14 -9.35265e-13 -8.25411e-13 84.0846 6.37398 2.78248 -7.15291 -2.5828 12.5602 -0.782299 24.2855 3.63569 4.28455e-09 -2.00848e-09 2.26073e-10 7.38308e-09 -3.47176e-09 3.05053e-10 4.28455e-09 -2.00848e-09 2.26065e-10 7.73091 5.47488 0.417314 4.28455e-09 -2.00848e-09 2.2607e-10 2.90554 0.965183 0.102902 4.28455e-09 -2.00848e-09 2.26071e-10 10.2786 0.731801 0.0259123 4.28454e-09 -2.00847e-09 2.26079e-10 2.22167 -0.733487 -0.20892 2.45973e-14 -9.35292e-13 -8.25681e-13 -80.7984 -9.14748 1.10248 3.70883 -1.11803 -6.42819 0.0230825 4.31246 -0.607232 2.31943e-11 -5.6605e-09 -2.79237e-09 2.50329e-11 -9.79046e-09 -4.82961e-09 2.31932e-11 -5.6605e-09 -2.79237e-09 -7.73091 5.47488 -0.417314 2.31971e-11 -5.6605e-09 -2.79238e-09 -2.90554 0.965183 -0.102902 2.31895e-11 -5.6605e-09 -2.79238e-09 -10.2786 0.731801 -0.0259123 2.32036e-11 -5.6605e-09 -2.7924e-09 -2.22167 -0.733487 0.20892 -2.03217e-16 0.0 -3.88251e-19 4.41194 -39.0176 12.8627 -7.63986 82.9552 8.1613 -1.9195 3.74514 -16.9462 2.03217e-16 0.0 3.88251e-19 -9.63988 -6.59318 8.45838 -0.150561 28.7903 -0.710411 1.71161 -24.7971 2.38252
